<?xml version="1.0" standalone="no"?><svg xmlns="http://www.w3.org/2000/svg" viewBox="0 0 1440 320" style="background-color: #F8F9FA"><path fill="#000000" fill-opacity="0.8" d="M0,160L0,160L60,160L60,320L120,320L120,32L180,32L180,128L240,128L240,256L300,256L300,160L360,160L360,0L420,0L420,320L480,320L480,32L540,32L540,160L600,160L600,288L660,288L660,288L720,288L720,224L780,224L780,32L840,32L840,64L900,64L900,192L960,192L960,64L1020,64L1020,160L1080,160L1080,224L1140,224L1140,256L1200,256L1200,160L1260,160L1260,288L1320,288L1320,256L1380,256L1380,64L1440,64L1440,0L1380,0L1380,0L1320,0L1320,0L1260,0L1260,0L1200,0L1200,0L1140,0L1140,0L1080,0L1080,0L1020,0L1020,0L960,0L960,0L900,0L900,0L840,0L840,0L780,0L780,0L720,0L720,0L660,0L660,0L600,0L600,0L540,0L540,0L480,0L480,0L420,0L420,0L360,0L360,0L300,0L300,0L240,0L240,0L180,0L180,0L120,0L120,0L60,0L60,0L0,0L0,0Z"></path></svg>