<?xml version="1.0" standalone="no"?><svg xmlns="http://www.w3.org/2000/svg" viewBox="0 0 1440 320" style="background-color: #F8F9FA"><path fill="#000000" fill-opacity="0.8" d="M0,256L0,64L68.6,64L68.6,192L137.1,192L137.1,160L205.7,160L205.7,96L274.3,96L274.3,320L342.9,320L342.9,32L411.4,32L411.4,288L480,288L480,128L548.6,128L548.6,96L617.1,96L617.1,128L685.7,128L685.7,32L754.3,32L754.3,320L822.9,320L822.9,32L891.4,32L891.4,192L960,192L960,64L1028.6,64L1028.6,256L1097.1,256L1097.1,224L1165.7,224L1165.7,256L1234.3,256L1234.3,64L1302.9,64L1302.9,128L1371.4,128L1371.4,256L1440,256L1440,320L1371.4,320L1371.4,320L1302.9,320L1302.9,320L1234.3,320L1234.3,320L1165.7,320L1165.7,320L1097.1,320L1097.1,320L1028.6,320L1028.6,320L960,320L960,320L891.4,320L891.4,320L822.9,320L822.9,320L754.3,320L754.3,320L685.7,320L685.7,320L617.1,320L617.1,320L548.6,320L548.6,320L480,320L480,320L411.4,320L411.4,320L342.9,320L342.9,320L274.3,320L274.3,320L205.7,320L205.7,320L137.1,320L137.1,320L68.6,320L68.6,320L0,320L0,320Z"></path></svg>